<mxfile host="app.diagrams.net" modified="2023-07-07T03:08:58.789Z" agent="Mozilla/5.0 (Windows NT 10.0; Win64; x64) AppleWebKit/537.36 (KHTML, like Gecko) Chrome/114.0.0.0 Safari/537.36" etag="qQPcNbZCb7fdZi1qfAov" version="21.6.1" type="github">
  <diagram name="缓存穿透" id="NYeGkVjz_iJQMs_fjLAV">
    <mxGraphModel dx="2074" dy="1116" grid="1" gridSize="10" guides="1" tooltips="1" connect="1" arrows="1" fold="1" page="1" pageScale="1" pageWidth="827" pageHeight="1169" math="0" shadow="0">
      <root>
        <mxCell id="0" />
        <mxCell id="1" parent="0" />
        <mxCell id="IJ4MwXWZd-iRa8kyLuOU-1" value="Actor" style="shape=umlActor;verticalLabelPosition=bottom;verticalAlign=top;html=1;" vertex="1" parent="1">
          <mxGeometry x="80" y="270" width="30" height="60" as="geometry" />
        </mxCell>
        <mxCell id="IJ4MwXWZd-iRa8kyLuOU-2" value="Actor" style="shape=umlActor;verticalLabelPosition=bottom;verticalAlign=top;html=1;" vertex="1" parent="1">
          <mxGeometry x="80" y="370" width="30" height="60" as="geometry" />
        </mxCell>
        <mxCell id="IJ4MwXWZd-iRa8kyLuOU-3" value="Actor" style="shape=umlActor;verticalLabelPosition=bottom;verticalAlign=top;html=1;" vertex="1" parent="1">
          <mxGeometry x="80" y="475" width="30" height="60" as="geometry" />
        </mxCell>
        <mxCell id="IJ4MwXWZd-iRa8kyLuOU-5" value="" style="endArrow=classic;html=1;rounded=0;" edge="1" parent="1" source="IJ4MwXWZd-iRa8kyLuOU-1">
          <mxGeometry width="50" height="50" relative="1" as="geometry">
            <mxPoint x="550" y="590" as="sourcePoint" />
            <mxPoint x="270" y="380" as="targetPoint" />
          </mxGeometry>
        </mxCell>
        <mxCell id="IJ4MwXWZd-iRa8kyLuOU-9" value="匹配不到的Key" style="edgeLabel;html=1;align=center;verticalAlign=middle;resizable=0;points=[];" vertex="1" connectable="0" parent="IJ4MwXWZd-iRa8kyLuOU-5">
          <mxGeometry x="-0.29" y="1" relative="1" as="geometry">
            <mxPoint x="1" as="offset" />
          </mxGeometry>
        </mxCell>
        <mxCell id="IJ4MwXWZd-iRa8kyLuOU-6" value="Redis" style="shape=cube;whiteSpace=wrap;html=1;boundedLbl=1;backgroundOutline=1;darkOpacity=0.05;darkOpacity2=0.1;" vertex="1" parent="1">
          <mxGeometry x="294" y="370" width="120" height="80" as="geometry" />
        </mxCell>
        <mxCell id="IJ4MwXWZd-iRa8kyLuOU-7" value="" style="endArrow=classic;html=1;rounded=0;" edge="1" parent="1" source="IJ4MwXWZd-iRa8kyLuOU-2">
          <mxGeometry width="50" height="50" relative="1" as="geometry">
            <mxPoint x="550" y="590" as="sourcePoint" />
            <mxPoint x="260" y="400" as="targetPoint" />
          </mxGeometry>
        </mxCell>
        <mxCell id="IJ4MwXWZd-iRa8kyLuOU-10" value="匹配不到的Key" style="edgeLabel;html=1;align=center;verticalAlign=middle;resizable=0;points=[];" vertex="1" connectable="0" parent="IJ4MwXWZd-iRa8kyLuOU-7">
          <mxGeometry x="-0.2089" relative="1" as="geometry">
            <mxPoint as="offset" />
          </mxGeometry>
        </mxCell>
        <mxCell id="IJ4MwXWZd-iRa8kyLuOU-8" value="" style="endArrow=classic;html=1;rounded=0;" edge="1" parent="1" source="IJ4MwXWZd-iRa8kyLuOU-3">
          <mxGeometry width="50" height="50" relative="1" as="geometry">
            <mxPoint x="550" y="590" as="sourcePoint" />
            <mxPoint x="260" y="430" as="targetPoint" />
          </mxGeometry>
        </mxCell>
        <mxCell id="IJ4MwXWZd-iRa8kyLuOU-11" value="匹配不到的Key" style="edgeLabel;html=1;align=center;verticalAlign=middle;resizable=0;points=[];" vertex="1" connectable="0" parent="IJ4MwXWZd-iRa8kyLuOU-8">
          <mxGeometry x="-0.1519" y="1" relative="1" as="geometry">
            <mxPoint as="offset" />
          </mxGeometry>
        </mxCell>
        <mxCell id="IJ4MwXWZd-iRa8kyLuOU-12" value="" style="endArrow=classic;html=1;rounded=0;exitX=0;exitY=0;exitDx=120;exitDy=50;exitPerimeter=0;" edge="1" parent="1" source="IJ4MwXWZd-iRa8kyLuOU-6">
          <mxGeometry width="50" height="50" relative="1" as="geometry">
            <mxPoint x="550" y="590" as="sourcePoint" />
            <mxPoint x="640" y="420" as="targetPoint" />
          </mxGeometry>
        </mxCell>
        <mxCell id="IJ4MwXWZd-iRa8kyLuOU-14" value="缓存匹配不到直接访问数据库" style="edgeLabel;html=1;align=center;verticalAlign=middle;resizable=0;points=[];" vertex="1" connectable="0" parent="IJ4MwXWZd-iRa8kyLuOU-12">
          <mxGeometry x="-0.1209" y="1" relative="1" as="geometry">
            <mxPoint as="offset" />
          </mxGeometry>
        </mxCell>
        <mxCell id="IJ4MwXWZd-iRa8kyLuOU-13" value="DB" style="shape=cylinder3;whiteSpace=wrap;html=1;boundedLbl=1;backgroundOutline=1;size=15;" vertex="1" parent="1">
          <mxGeometry x="650" y="380" width="60" height="80" as="geometry" />
        </mxCell>
      </root>
    </mxGraphModel>
  </diagram>
</mxfile>
